<svg width="37" height="12" viewBox="0 0 37 12" fill="none" xmlns="http://www.w3.org/2000/svg">
<path d="M0.341309 10.3115V1.19287C0.341309 1.00244 0.409668 0.838867 0.546387 0.702148C0.683105 0.56543 0.851562 0.49707 1.05176 0.49707H2.41406C2.60449 0.49707 2.76562 0.56543 2.89746 0.702148C3.03418 0.838867 3.10254 1.00244 3.10254 1.19287V4.48877H8.1416V1.19287C8.1416 1.00244 8.20996 0.838867 8.34668 0.702148C8.4834 0.56543 8.64697 0.49707 8.8374 0.49707H10.1997C10.3999 0.49707 10.5659 0.56543 10.6978 0.702148C10.8345 0.838867 10.9028 1.00244 10.9028 1.19287V10.3115C10.9028 10.502 10.832 10.6655 10.6904 10.8022C10.5537 10.9341 10.3901 11 10.1997 11H8.8374C8.64697 11 8.4834 10.9365 8.34668 10.8096C8.20996 10.6777 8.1416 10.5166 8.1416 10.3262V6.56152H3.10254V10.3262C3.10254 10.5166 3.03418 10.6777 2.89746 10.8096C2.76562 10.9365 2.60449 11 2.41406 11H1.05176C0.861328 11 0.695312 10.9341 0.553711 10.8022C0.412109 10.6655 0.341309 10.502 0.341309 10.3115ZM12.8657 6.84717V1.19287C12.8657 1.00244 12.9316 0.838867 13.0635 0.702148C13.2002 0.56543 13.3687 0.49707 13.5688 0.49707H14.9385C15.124 0.49707 15.2852 0.56543 15.4219 0.702148C15.5586 0.838867 15.627 1.00244 15.627 1.19287V6.86182C15.627 7.57959 15.7832 8.11426 16.0957 8.46582C16.4131 8.81738 16.9014 8.99316 17.5605 8.99316H18.7324C19.3916 8.99316 19.8774 8.81738 20.1899 8.46582C20.5073 8.11426 20.666 7.57959 20.666 6.86182V1.19287C20.666 1.00244 20.7319 0.838867 20.8638 0.702148C21.0005 0.56543 21.1641 0.49707 21.3545 0.49707H22.7168C22.917 0.49707 23.0854 0.56543 23.2222 0.702148C23.3589 0.838867 23.4272 1.00244 23.4272 1.19287V6.84717C23.4272 8.18506 23.0342 9.22266 22.248 9.95996C21.4619 10.6924 20.3145 11.0586 18.8057 11.0586H17.4873C15.9736 11.0586 14.8237 10.6924 14.0376 9.95996C13.2563 9.22266 12.8657 8.18506 12.8657 6.84717ZM25.3755 1.19287C25.3755 1.00244 25.4438 0.838867 25.5806 0.702148C25.7173 0.56543 25.8809 0.49707 26.0713 0.49707H32.0259C33.4858 0.49707 34.5625 0.916992 35.2559 1.75684C35.6416 2.2207 35.8345 2.81396 35.8345 3.53662C35.8345 4.25439 35.5049 4.88184 34.8457 5.41895C35.7832 5.92188 36.252 6.70312 36.252 7.7627C36.252 8.82227 35.876 9.62793 35.124 10.1797C34.377 10.7266 33.459 11 32.3701 11H26.0713C25.8809 11 25.7173 10.9341 25.5806 10.8022C25.4438 10.6655 25.3755 10.502 25.3755 10.3115V1.19287ZM28.1367 9.02246H32.3262C32.7021 9.02246 32.9902 8.91016 33.1904 8.68555C33.3906 8.46094 33.4907 8.15332 33.4907 7.7627C33.4907 7.37207 33.3906 7.06445 33.1904 6.83984C32.9902 6.61523 32.7021 6.50293 32.3262 6.50293H28.1367V9.02246ZM28.1367 4.57666H32.0552C32.3628 4.57666 32.6094 4.48633 32.7949 4.30566C32.9805 4.12012 33.0732 3.86377 33.0732 3.53662C33.0732 3.20459 32.9805 2.9458 32.7949 2.76025C32.6094 2.57471 32.3628 2.48193 32.0552 2.48193H28.1367V4.57666Z" fill="#F08E65"/>
</svg>
