<svg xmlns="http://www.w3.org/2000/svg" width="173" height="120" viewBox="0 0 173 120" fill="none">
  <path d="M94.6816 81.2576V76.9629C94.6816 37.1357 124.167 4.67977 162.673 0.0600168C167.735 -0.547231 172.148 3.53464 172.148 8.63241C172.148 13.0309 168.824 16.6424 164.46 17.192C150.895 18.9007 138.744 25.0576 129.661 33.9858C126.435 37.1569 128.754 42.5517 133.277 42.5335C133.32 42.5333 133.363 42.5333 133.406 42.5333C155.603 42.5333 173.214 60.8348 172.098 83.2751C171.122 102.895 155.044 118.974 135.424 119.95C112.983 121.066 94.6816 103.454 94.6816 81.2576Z" fill="#ECECEC"/>
  <path d="M0 80.3994L1.72815e-06 76.9629C1.72815e-06 37.1357 29.4855 4.67977 67.9916 0.0600168C73.0531 -0.547231 77.4667 3.53464 77.4667 8.63241C77.4667 13.0307 74.143 16.6424 69.7792 17.1926C56.2216 18.9021 44.0679 25.059 34.9894 33.9867C31.7646 37.158 34.0825 42.5528 38.6053 42.5335C38.651 42.5334 38.6967 42.5333 38.7424 42.5333C60.2519 42.5333 77.4667 59.7481 77.4667 81.2576C77.4667 103.163 59.6427 120.603 37.6067 119.984C16.5141 119.392 -1.06913e-05 101.5 0 80.3994Z" fill="#ECECEC"/>
</svg>