<svg xmlns="http://www.w3.org/2000/svg" width="21" height="20" viewBox="0 0 21 20" fill="none">
  <path d="M20.8154 7.55776C20.6788 7.13517 20.304 6.83502 19.8605 6.79506L13.8369 6.24811L11.455 0.673057C11.2794 0.264478 10.8794 0 10.435 0C9.9906 0 9.59062 0.264478 9.41499 0.674012L7.0331 6.24811L1.00855 6.79506C0.565894 6.83598 0.192026 7.13517 0.0546126 7.55776C-0.0828012 7.98035 0.0441035 8.44386 0.37896 8.73605L4.93209 12.7292L3.58948 18.6434C3.49123 19.0782 3.66001 19.5277 4.02082 19.7885C4.21476 19.9287 4.44166 20 4.67047 20C4.86776 20 5.06345 19.9468 5.23908 19.8417L10.435 16.7363L15.629 19.8417C16.0091 20.0704 16.4882 20.0495 16.8482 19.7885C17.2092 19.5269 17.3778 19.0773 17.2796 18.6434L15.937 12.7292L20.4901 8.73684C20.825 8.44386 20.9528 7.98115 20.8154 7.55776Z" fill="#FFC107"/>
</svg>