<svg>
    <symbol id="aetna" xmlns="http://www.w3.org/2000/svg" viewBox="0 0 104 20" fill="none">
        <path d="M46.9865 13.1099C51.8033 13.1099 54.2751 11.5982 54.2751 8.34742C54.2751 5.54147 52.2361 3.67552 47.8077 3.67552C42.4414 3.67552 40.2956 6.07085 39.8065 10.3603C39.0235 10.31 38.168 10.2939 37.0006 10.2878C37.0006 10.0543 37.0066 9.82085 37.0066 9.58132C37.0066 5.23148 35.2071 3.65942 30.4064 3.65942C28.0613 3.65942 25.9941 4.00966 24.7341 4.52093L24.9233 7.99315C26.0243 7.40942 27.6628 6.84783 29.2188 6.84783C31.4128 6.84783 32.0811 7.75362 32.0811 9.92552L32.075 10.2476C31.9241 10.2415 31.5356 10.2415 31.3242 10.2415C25.8572 10.2415 23.323 11.8982 23.323 14.9638C23.323 18.0294 24.8951 19.9859 29.3798 19.9859C31.7409 19.9859 34.0738 19.6518 37.0811 19.6518C36.8597 18.3857 36.8536 16.562 36.8536 15.312C36.8536 14.6518 36.8878 13.8627 36.92 12.967C38.2043 12.9791 39.1483 13.0113 39.7703 13.0394C40.2373 18.118 42.8701 19.996 48.3552 19.996C50.3822 19.996 52.4333 19.6518 53.5062 19.1506L53.317 15.6783C52.2502 16.2943 50.7667 16.8015 49.1382 16.8015C46.443 16.8015 44.9816 15.3965 44.9816 13.1743V13.0696C45.4647 13.0918 46.4269 13.1079 46.9865 13.1079V13.1099ZM30.5452 16.9545C28.8786 16.9545 28.168 16.399 28.168 15.004C28.168 13.6091 29.0738 12.8986 31.3524 12.8986C31.5638 12.8986 31.8194 12.8925 32.0026 12.9106C31.9905 14.2109 31.9643 15.7266 32.0368 16.7834C31.6423 16.8881 31.0585 16.9565 30.5473 16.9565L30.5452 16.9545ZM44.9575 10.4267V10.3482C44.9575 8.17029 45.6459 6.57005 47.6467 6.57005C48.7799 6.57005 49.5086 7.16385 49.5086 8.24275C49.5086 9.76047 48.4981 10.465 46.3967 10.465C45.8915 10.465 45.352 10.4589 44.9575 10.4267ZM64.1262 16.5217C62.5159 16.5217 62.0428 15.8837 62.0428 13.5447V7.50604H65.2212V4.15056H62.0932C62.0932 2.96095 62.1878 1.20572 62.2884 0H59.3436C58.9551 2.93277 58.1036 4.44444 55.4265 4.88929C55.4144 5.67834 55.4607 6.75523 55.4265 7.50604H57.2099C57.1817 9.1727 57.1314 12.2182 57.1314 14.9899C57.1314 18.5286 58.9651 19.9799 62.4092 19.9799C64.0879 19.9799 65.3198 19.7363 65.7324 19.6196L65.5211 16.1695C65.2212 16.3748 64.6274 16.5258 64.1262 16.5258V16.5217ZM97.6527 9.58132C97.6527 5.23148 95.8532 3.65942 91.0585 3.65942C88.7075 3.65942 86.6463 4.00966 85.3862 4.52093L85.5754 7.99315C86.6765 7.40942 88.3089 6.84783 89.8709 6.84783C92.065 6.84783 92.7332 7.75362 92.7332 9.92552V10.2476C92.5783 10.2415 92.1938 10.2415 91.9824 10.2415C86.5094 10.2415 83.9812 11.8982 83.9812 14.9638C83.9812 18.0294 85.5533 19.9859 90.038 19.9859C92.3991 19.9859 94.732 19.6518 97.7332 19.6518C97.5159 18.3857 97.5118 16.562 97.5118 15.312C97.5058 13.8949 97.6568 11.9062 97.6568 9.57729L97.6527 9.58132ZM91.1954 16.9545C89.5227 16.9545 88.8182 16.399 88.8182 15.004C88.8182 13.6091 89.724 12.8986 92.0026 12.8986C92.2079 12.8986 92.4635 12.8925 92.6467 12.9106C92.6407 14.2109 92.6085 15.7266 92.6849 16.7834C92.2904 16.8881 91.7006 16.9565 91.1954 16.9565V16.9545ZM81.9724 12.4195C81.9724 11.1091 82.0006 9.36393 82.0006 9.36393C82.0006 5.4368 80.2775 3.67552 75.4064 3.67552C72.6729 3.67552 70.7224 4.15258 67.6729 4.15258C67.846 6.90821 67.85 10.314 67.8399 12.4255C67.852 14.5692 67.7675 18.4159 67.6729 19.6538H72.9064C72.7836 18.4098 72.6849 14.837 72.695 12.4255C72.695 11.0527 72.7111 9.39211 72.7675 7.16385C73.2888 6.98671 73.951 6.85185 74.6676 6.85185C76.5014 6.85185 77.0891 7.71337 77.0891 10.0745C77.0891 10.0745 77.1173 11.558 77.1173 12.4295C77.1173 14.5733 77.0448 18.4199 76.9502 19.6578H82.1837C82.0609 18.4018 81.9563 14.8289 81.9724 12.4175V12.4195ZM17.1455 2.969C16.6564 2.47987 16.0183 2.23631 15.3842 2.23631C14.7502 2.23631 14.1 2.47987 13.6109 2.97504L10.7103 5.88164L7.8037 2.97504C7.30853 2.47585 6.67044 2.23027 6.03035 2.23027C5.39025 2.23027 4.75217 2.47383 4.26304 2.96296L0.728414 6.49758C-0.243809 7.46981 -0.243809 9.05395 0.734452 10.0322L10.7022 20L20.67 10.0322C21.6483 9.05999 21.6423 7.47584 20.67 6.49758L17.1415 2.969H17.1455ZM101.807 4.5632C101.807 4.03583 101.485 3.8124 100.857 3.8124H99.8689V6.41304H100.298V5.30193H100.698L101.371 6.41304H101.854L101.125 5.26771C101.519 5.22947 101.809 5.03422 101.809 4.56119L101.807 4.5632ZM100.296 4.94163V4.18076H100.813C101.069 4.18076 101.381 4.219 101.381 4.531C101.381 4.90942 101.097 4.93559 100.781 4.93559H100.298V4.94163H100.296ZM100.763 2.72544C99.5187 2.72544 98.4519 3.66345 98.4519 5.07649C98.4519 6.48953 99.414 7.42753 100.763 7.42753C101.997 7.42753 103.063 6.49356 103.063 5.07649C103.063 3.65942 101.997 2.72544 100.763 2.72544ZM100.763 7.01489C99.6455 7.01489 98.951 6.14332 98.951 5.07649C98.951 3.93116 99.7401 3.13808 100.763 3.13808C101.785 3.13808 102.558 3.9372 102.558 5.07649C102.558 6.21578 101.769 7.01489 100.763 7.01489Z" fill="#34372D"/>
    </symbol>
    <symbol id="health" xmlns="http://www.w3.org/2000/svg" viewBox="0 0 160 20" fill="none">
        <path d="M98.033 0.734558H92.1288V2.62999H94.0678V8.53412H84.3293V2.62999H86.3119V0.734558H80.4077V2.62999H82.0884V17.756H80.4077V19.6515H86.3119V17.756H84.3293V10.6474H94.0678V17.756H92.1288V19.6515H98.033V17.756H96.3087V2.62999H98.033V0.734558Z" fill="#34372D"/>
        <path d="M101.438 11.8115C101.609 10.6039 102.042 9.70128 102.773 9.05391C103.464 8.40654 104.497 7.88989 105.702 7.88989C106.866 7.88989 107.986 8.27893 108.718 8.92319C109.409 9.57056 109.795 10.6039 109.969 11.8115H101.609M105.745 6.12207C103.763 6.12207 102.169 6.72587 100.962 7.97393C99.7542 9.22509 99.1504 10.8622 99.1504 12.8852C99.1504 14.9954 99.7542 16.7196 100.962 18.0144C102.169 19.306 103.763 19.9534 105.702 19.9534C107.124 19.9534 108.372 19.5643 109.493 18.8329C110.613 18.058 111.475 17.0215 112.036 15.6863H109.882C109.452 16.3773 109.02 16.978 108.332 17.367C107.684 17.7561 106.822 18.058 106.047 18.058C104.796 18.058 103.635 17.4977 102.817 16.7228C101.998 15.9478 101.525 14.9549 101.438 13.7505H112.341V13.4486C112.341 11.2512 111.737 9.43984 110.529 8.10464C109.325 6.76944 107.728 6.12207 105.745 6.12207Z" fill="#34372D"/>
        <path d="M120.784 18.058C119.533 18.058 118.5 17.5849 117.638 16.6356C116.776 15.6863 116.387 14.4819 116.387 13.0159C116.387 11.55 116.816 10.3455 117.638 9.39627C118.459 8.447 119.533 7.97393 120.828 7.97393C122.079 7.97393 123.112 8.447 123.975 9.39627C124.793 10.3455 125.226 11.55 125.226 12.9724C125.226 14.4383 124.796 15.6428 123.975 16.592C123.112 17.5849 122.079 18.058 120.784 18.058ZM120.657 6.12207C118.845 6.12207 117.339 6.76944 116.131 8.10464C114.924 9.43984 114.28 11.0769 114.28 13.0159C114.28 14.9549 114.883 16.592 116.131 17.9272C117.339 19.2624 118.889 19.9098 120.7 19.9098C121.65 19.9098 122.468 19.7386 123.2 19.3932C123.931 19.0477 124.578 18.531 125.051 17.8432V19.611H129.275V17.6285H127.379V8.45012H129.275V6.46754H125.051V8.19179C124.491 7.50085 123.844 6.9842 123.112 6.64184C122.381 6.29325 121.562 6.12207 120.657 6.12207Z" fill="#34372D"/>
        <path d="M134.143 0.476257H129.792V2.28765H131.861V16.897C131.905 19.3527 133.673 19.7853 134.921 19.7853C135.612 19.7853 136.172 19.6546 136.172 19.6546V17.8432C136.172 17.8432 136.001 17.8868 135.699 17.8868C135.095 17.8868 134.149 17.7156 134.062 16.508V0.479373" fill="#34372D"/>
        <path d="M140.221 3.10614H138.111V6.20916H135.914V8.02055H138.111V16.3803C138.067 19.1379 139.748 19.6981 140.697 19.6981C141.086 19.6981 141.429 19.6981 141.731 19.6545C142.032 19.611 142.851 19.611 143.109 19.5674V17.672C143.109 17.672 141.687 17.8027 141.6 17.8027C140.996 17.8027 140.61 17.7155 140.436 17.5008C140.265 17.286 140.177 16.7258 140.177 15.733V15.3439V8.01744H142.891V6.20605H140.177V3.10303" fill="#34372D"/>
        <path d="M148.322 0.476257H144.227V2.20051H146.078V17.8432H144.227V19.6546H150.174V17.8432H148.064L148.108 10.6039C148.497 9.01034 150.305 7.80275 151.986 7.80275C152.116 7.80275 152.244 7.80275 152.375 7.84632C153.022 7.93346 153.968 8.14822 154.444 8.70844C154.79 9.09749 155.652 9.57056 155.696 12.4588V17.8899H153.411V19.7013H159.359V17.8899H157.765L157.722 12.3312C157.722 12.3312 157.893 9.44296 156.43 7.76228C155.353 6.55469 153.371 5.95089 152.68 5.95089C151.905 5.95089 151.043 5.99447 150.311 6.33994C149.58 6.68541 148.976 6.94373 148.285 7.63157V0.476257" fill="#34372D"/>
        <path d="M35.8947 0.261414C32.8353 0.261414 30.4636 1.12354 28.7861 2.80421C27.1054 4.48488 26.2869 6.89695 26.2869 10.0871C26.2869 12.4556 26.7599 14.3977 27.7092 15.9041C28.6585 17.4136 29.7789 18.4905 31.1141 19.0943C32.4058 19.6981 34.13 20 36.1997 20C37.924 20 39.3027 19.7416 40.4232 19.2686C41.5436 18.7955 42.4493 18.061 43.1807 17.0712C43.9121 16.0815 45.0762 14.183 45.0762 12.3747L39.5611 12.2876C39.3027 13.4952 39.0008 14.0118 38.397 14.6561C37.8368 15.3034 36.9747 15.6053 35.8542 15.6053C34.6902 15.6053 33.7845 15.2163 33.1403 14.4413C32.496 13.6663 32.191 12.2004 32.191 10.0902C32.191 8.36599 32.4493 7.11793 33.0096 6.33984C33.7005 5.26297 34.7338 4.74631 36.069 4.74631C36.6728 4.74631 37.1894 4.87703 37.6625 5.09179C38.1356 5.35011 38.5246 5.69559 38.8701 6.12509C39.0849 6.38342 39.2592 6.81603 39.4303 7.41672L45.0762 7.50386C44.5595 4.44442 42.966 2.76374 41.5872 1.81448C40.1617 0.734489 38.2663 0.261414 35.8947 0.261414Z" fill="#34372D"/>
        <path d="M62.5676 0.606873H56.5795L53.2617 12.7575L50.1151 0.606873H43.9526L50.028 19.6514H56.4083L62.5676 0.606873Z" fill="#34372D"/>
        <path d="M70.2395 0.261414C68.257 0.261414 66.707 0.519736 65.543 0.992814C64.4225 1.50947 63.3021 2.15684 62.7419 3.01896C62.1816 3.88108 61.8797 4.83035 61.8797 5.7765C61.8797 7.286 62.3528 8.70523 63.4297 9.69807C64.7213 10.9492 66.5763 11.5095 69.1595 12.1101C70.7531 12.4556 71.9171 12.5397 72.3497 12.9287C72.7792 13.3177 72.6952 13.7908 72.6952 14.2639C72.6516 15.2972 71.2293 15.6427 70.3671 15.6862H70.3236C68.3846 15.6862 67.6096 14.3946 67.4789 13.4889H61.749C61.9202 15.4279 62.3092 16.8503 63.5604 18.0983C64.8116 19.3495 67.0494 19.9502 70.2831 19.9502C72.135 19.9502 73.6444 19.6918 74.852 19.1316C76.0596 18.615 77.0058 17.84 77.6967 16.8036C78.3877 15.7703 78.73 14.6498 78.73 13.4422C78.73 12.4089 78.4717 11.4597 77.9551 10.6411C77.4384 9.82257 76.5763 9.30592 75.4558 8.74569C74.3354 8.18547 72.44 7.71239 69.8536 7.15217C68.8203 6.93742 67.7839 6.59194 67.7839 5.47149C67.8275 4.78055 68.9043 4.1363 69.5953 4.1363C70.8464 4.1363 72.3528 4.78366 72.3528 6.11886L77.9986 6.07529C77.7403 4.09272 77.0494 2.54277 75.7577 1.63707C74.547 0.734491 72.6952 0.261414 70.2395 0.261414Z" fill="#34372D"/>
        <path d="M23.657 5.12917C22.6673 4.13944 19.5643 1.16402 18.7021 0.258326C18.531 0.0871465 18.3131 0 18.0983 0H16.4177C16.2029 0 15.9446 0.0871465 15.8139 0.258326L12.2378 4.04918L11.9795 4.09275L11.7211 4.04918L8.14503 0.258326C7.97385 0.0871465 7.75599 0 7.54124 0H5.86057C5.64581 0 5.43106 0.0871465 5.25677 0.258326C4.35107 1.12045 1.29163 4.13632 0.301898 5.12917C0.087146 5.34392 0 5.60224 0 5.86057V7.67196C0 7.97386 0.130719 8.23218 0.301898 8.40336L12.023 19.9533L23.7442 8.40336C23.9589 8.18861 24.0461 7.93028 24.0461 7.67196V5.86057C23.9589 5.60535 23.8282 5.34703 23.657 5.12917Z" fill="#34372D"/>
    </symbol>
    <symbol id="signa" xmlns="http://www.w3.org/2000/svg" viewBox="0 0 111 60" fill="none">
        <path d="M62.3763 54.7209C61.5907 54.7209 61.1224 55.1331 60.7965 55.6122V52.8928H59.6396V59.8835H60.7965V57.0302C60.7965 56.2446 61.2648 55.7763 61.936 55.7763C62.6073 55.7763 63.0173 56.2252 63.0173 57.0108V59.8835H64.1742V56.6633C64.1763 55.4849 63.5137 54.7187 62.3763 54.7187V54.7209Z" fill="#34372D"/>
        <path d="M67.7698 54.7208C66.3238 54.7208 65.2986 55.9079 65.2986 57.3561V57.3755C65.2986 58.9359 66.4295 60 67.8928 60C68.8209 60 69.4835 59.6266 69.9626 59.0525L69.2828 58.4503C68.8813 58.8431 68.4777 59.0525 67.9122 59.0525C67.1655 59.0525 66.5806 58.5928 66.4554 57.7683H70.172C70.1806 57.6518 70.1914 57.5482 70.1914 57.4424C70.1914 55.9856 69.3777 54.7208 67.7676 54.7208H67.7698ZM66.4468 57C66.5525 56.2143 67.0489 55.6683 67.7569 55.6683C68.523 55.6683 68.9633 56.2532 69.041 57H66.4468Z" fill="#34372D"/>
        <path d="M69.8352 48.2763C69.8352 47.3094 69.4834 47.2533 69.4834 47.2533H68.9568C68.0784 47.2533 67.2 46.3748 67.2 45.4964V36.5785C67.2 32.9785 69.3496 30.8266 72.1144 30.8266C74.4842 30.8266 76.241 32.141 76.241 35.0396V45.4964C76.241 46.3748 75.3626 47.2533 74.4842 47.2533H73.9575C73.9575 47.2533 73.6057 47.3461 73.6057 48.2418C73.6057 49.1374 73.9575 49.6187 73.9575 49.6187H84.3173C84.3173 49.6187 84.6691 49.2302 84.6691 48.3346C84.6691 47.4389 84.3173 47.2576 84.3173 47.2576H83.7906C82.9122 47.2576 82.0338 46.3792 82.0338 45.5008V34.8259C82.0338 29.7777 78.8741 27.3195 74.3072 27.3195C70.9295 27.3195 68.3374 28.8993 66.7575 31.2259C66.7575 31.2259 66.7489 28.9231 66.7489 28.6446C66.7489 27.8914 66.0259 27.6303 65.1604 27.9777C64.5755 28.213 61.6273 29.2511 59.1259 29.2511C58.9878 29.4367 58.7698 29.8101 58.7698 30.4209C58.7698 30.9583 58.895 31.241 59.1216 31.6079H59.6482C60.5266 31.6079 61.405 32.4864 61.405 33.3648V45.4943C61.405 46.3727 60.5266 47.2511 59.6482 47.2511H59.1216C59.1216 47.2511 58.7698 47.3072 58.7698 48.2547C58.7698 49.2022 59.1216 49.6123 59.1216 49.6123H69.4813C69.4813 49.6123 69.8352 49.2432 69.8352 48.2741V48.2763Z" fill="#34372D"/>
        <path d="M50.6825 28.9187C49.1156 27.8935 47.1494 27.287 44.9933 27.287C39.5717 27.287 35.5918 30.9151 35.5918 35.4647C35.5918 38.264 37.1221 40.5367 39.2199 41.9374L35.5357 46.5129C35.5357 46.5129 35.0674 47.3611 35.0674 48.2072C35.0674 49.0532 35.6026 49.6187 35.6026 49.6187H38.2141C36.2911 50.7561 35.4149 52.6489 35.4149 54.2676C35.4149 57.4144 38.1688 59.9957 44.3372 59.9957C50.5055 59.9957 56.3177 56.7151 56.3177 51.5547C56.3177 47.8813 54.1336 45.3928 48.6645 45.3928H40.4005L42.0192 43.2043C42.9364 43.5108 43.6811 43.6403 44.9933 43.6403C50.3717 43.6403 54.3947 39.9669 54.3947 35.4626C54.3947 34.064 54.0041 32.754 53.3156 31.6079H56.512C56.6803 31.3165 56.8638 30.9108 56.8638 30.2331C56.8638 29.7043 56.6674 29.1302 56.5163 28.9144H50.6825V28.9187ZM42.0192 49.6209H46.9163C49.8451 49.6209 50.8508 51.2525 50.8508 52.9144C50.8508 55.0144 48.8393 57.1554 45.2113 57.1554C41.8012 57.1554 39.876 55.6252 39.876 53.3525C39.8739 51.8223 40.7501 50.2791 42.017 49.623L42.0192 49.6209ZM44.9933 40.9317C42.5458 40.9317 40.9703 38.877 40.9703 35.4669C40.9703 32.0568 42.5436 30.0022 44.9933 30.0022C47.4429 30.0022 48.9731 32.0568 48.9731 35.4669C48.9731 38.877 47.3998 40.9317 44.9933 40.9317Z" fill="#34372D"/>
        <path d="M19.3942 42.2698C18.6906 42.0238 18.1144 42.2396 18.1144 42.2396C16.487 45.0626 15.0173 46.3641 12.7317 46.3641C8.60503 46.3641 5.97194 42.6346 5.97194 38.2015C5.97194 34.0749 7.81511 30.0367 12.0734 30.0367C14.7496 30.0367 16.8065 31.7051 16.8065 34.2497L16.8669 35.0396C16.8669 35.0396 16.7849 35.3914 17.8986 35.3914C19.0122 35.3914 19.3144 35.0396 19.3144 35.0396L19.0942 29.29C19.0942 29.29 19.0705 29.1389 18.9906 29.0331C18.9129 28.9295 18.7856 28.8497 18.7856 28.8497C17.0741 27.8849 14.7906 27.313 12.1144 27.313C5.83813 27.313 0 31.5259 0 39.1209C0 45.9238 5.13453 50.2252 11.018 50.2252C16.5475 50.2252 19.1158 46.7569 20.2576 42.8936C20.2576 42.8892 19.9468 42.4576 19.3921 42.2655L19.3942 42.2698Z" fill="#34372D"/>
        <path d="M27.2611 25.7525C29.2661 25.7525 30.8913 24.0842 30.8913 22.0295C30.8913 19.9748 29.264 18.3043 27.2611 18.3043C25.2582 18.3043 23.6309 19.9705 23.6309 22.0295C23.6309 24.0885 25.2582 25.7525 27.2611 25.7525Z" fill="#34372D"/>
        <path d="M30.1595 32.5684C30.1595 31.69 31.0379 30.8116 31.9163 30.8116H32.443C32.443 30.8116 32.7948 30.5914 32.7948 29.7389C32.7948 28.8864 32.443 28.4482 32.443 28.4482H22.0832C22.0832 28.4482 21.7314 28.9835 21.7314 29.8123C21.7314 30.641 22.0832 30.8094 22.0832 30.8094H22.6099C23.4883 30.8094 24.3667 31.6878 24.3667 32.5662V45.49C24.3667 46.3684 23.4883 47.2468 22.6099 47.2468H22.0832C22.0832 47.2468 21.7314 47.4195 21.7314 48.2461C21.7314 49.0727 22.0832 49.6101 22.0832 49.6101H32.443C32.443 49.6101 32.7948 49.172 32.7948 48.3195C32.7948 47.4669 32.443 47.2468 32.443 47.2468H31.9163C31.0379 47.2468 30.1595 46.3684 30.1595 45.49V32.5641V32.5684Z" fill="#34372D"/>
        <path d="M97.0747 54.7468C96.2502 54.7468 95.7042 54.9194 95.1495 55.1698L95.4646 56.0978C95.9243 55.9058 96.3452 55.7827 96.9107 55.7827C97.7157 55.7827 98.156 56.1648 98.156 56.864V56.9612C97.7632 56.8381 97.3704 56.7518 96.7596 56.7518C95.5812 56.7518 94.7092 57.2871 94.7092 58.4094V58.4288C94.7092 59.4432 95.551 59.9892 96.5092 59.9892C97.2733 59.9892 97.802 59.6741 98.1452 59.2619V59.8835H99.2956V56.8856C99.2956 55.5345 98.5661 54.7468 97.0747 54.7468ZM98.1754 58.0532C98.1754 58.6856 97.5992 59.1173 96.8351 59.1173C96.2891 59.1173 95.8574 58.8496 95.8574 58.3705V58.3511C95.8574 57.8611 96.2891 57.5655 97.0143 57.5655C97.4632 57.5655 97.8754 57.6518 98.1711 57.7662V58.0511H98.1733L98.1754 58.0532Z" fill="#34372D"/>
        <path d="M101.834 55.964V54.8245H100.677V59.8813H101.834V57.9561C101.834 56.6158 102.542 55.9554 103.558 55.9554H103.625V54.7274C102.732 54.6864 102.149 55.2065 101.834 55.9597V55.964Z" fill="#34372D"/>
        <path d="M110.506 46.459C110.506 45.7791 110.154 45.5719 110.154 45.5719H109.627C108.749 45.5719 107.873 44.6935 107.873 43.8151V28.3791C107.873 28.3791 107.838 27.9259 107.355 27.9259H106.019C105.756 27.9259 105.555 28.146 105.555 28.146L103.692 30.5762C103.474 30.8611 103.224 30.5762 103.224 30.5762C101.979 29.1086 99.885 27.3065 96.108 27.3065C90.4447 27.3065 85.0469 31.4331 85.0469 38.9827C85.0469 46.0489 89.7001 50.2208 95.4066 50.2208C98.6548 50.2208 100.718 48.859 102.343 46.7525V49.3618C102.343 49.3618 102.365 49.9575 103.034 50.1065C103.636 50.2381 104.1 50.046 104.1 50.046L110.158 47.4583C110.158 47.4583 110.508 47.141 110.508 46.459H110.506ZM96.5462 47.3309C92.6397 47.3309 91.0167 43.4698 91.0167 38.7712C91.0167 34.0726 92.6418 30.2136 96.5462 30.2136C100.45 30.2136 102.076 34.0748 102.076 38.7712C102.078 43.4698 100.453 47.3309 96.5462 47.3309Z" fill="#34372D"/>
        <path d="M73.3813 54.7468C72.5568 54.7468 72.0108 54.9194 71.4561 55.1698L71.7712 56.0978C72.2309 55.9058 72.6518 55.7827 73.2173 55.7827C74.0223 55.7827 74.4626 56.1648 74.4626 56.864V56.9612C74.0698 56.8381 73.677 56.7518 73.064 56.7518C71.8856 56.7518 71.0137 57.2871 71.0137 58.4094V58.4288C71.0137 59.4432 71.8554 59.9892 72.8137 59.9892C73.5777 59.9892 74.1065 59.6741 74.4496 59.2619V59.8835H75.6V56.8856C75.6022 55.5345 74.8748 54.7468 73.3813 54.7468ZM74.482 58.0532C74.482 58.6856 73.9058 59.1173 73.1417 59.1173C72.5957 59.1173 72.164 58.8496 72.164 58.3705V58.3511C72.164 57.8611 72.5957 57.5655 73.3209 57.5655C73.7698 57.5655 74.182 57.6518 74.4777 57.7662V58.0511L74.482 58.0532Z" fill="#34372D"/>
        <path d="M106.651 54.7208C105.205 54.7208 104.18 55.9079 104.18 57.3561V57.3755C104.18 58.9359 105.311 60 106.774 60C107.702 60 108.365 59.6266 108.844 59.0525L108.164 58.4503C107.763 58.8431 107.359 59.0525 106.794 59.0525C106.047 59.0525 105.462 58.5928 105.337 57.7683H109.053C109.062 57.6518 109.073 57.5482 109.073 57.4424C109.073 55.9856 108.259 54.7208 106.651 54.7208ZM105.328 57C105.434 56.2143 105.93 55.6683 106.638 55.6683C107.404 55.6683 107.845 56.2532 107.922 57H105.328Z" fill="#34372D"/>
        <path d="M91.9791 58.9921C91.0877 58.9921 90.4661 58.2648 90.4661 57.3626V57.3432C90.4661 56.4626 91.0791 55.7331 91.923 55.7331C92.5078 55.7331 92.8812 55.9921 93.2352 56.3655L93.9539 55.5907C93.4855 55.0727 92.8899 54.7188 91.9316 54.7188C90.4186 54.7188 89.3071 55.9252 89.3071 57.3626V57.3821C89.3071 58.8195 90.4186 59.9957 91.9208 59.9957C92.9071 59.9957 93.4899 59.6029 93.9906 59.0482L93.2913 58.3598C92.9287 58.7331 92.5273 58.9921 91.9812 58.9921H91.9791Z" fill="#34372D"/>
        <path d="M78.2052 52.8906H77.0483V59.8813H78.2052V52.8906Z" fill="#34372D"/>
        <path d="M81.1186 53.4366H79.9618V54.8266H79.3208V55.8237H79.9618V58.4848C79.9618 59.5964 80.564 59.9676 81.4186 59.9676C81.8503 59.9676 82.174 59.8705 82.4632 59.7086V58.7611C82.2323 58.8777 82.0035 58.9338 81.7445 58.9338C81.3517 58.9338 81.123 58.7503 81.123 58.3014V55.8194H82.4827V54.8244H81.123V53.4366H81.1186Z" fill="#34372D"/>
        <path d="M86.3849 54.7209C85.5993 54.7209 85.1309 55.1331 84.805 55.6122V52.8928H83.6482V59.8835H84.805V57.0302C84.805 56.2446 85.2734 55.7763 85.9468 55.7763C86.6201 55.7763 87.028 56.2252 87.028 57.0108V59.8835H88.1849V56.6633C88.1849 55.4849 87.5223 54.7187 86.3849 54.7187V54.7209Z" fill="#34372D"/>
        <path fill-rule="evenodd" clip-rule="evenodd" d="M24.5743 9.32158C24.5786 6.97986 25.6383 4.89281 27.2937 3.48993C28.9448 4.89712 29.9937 6.99065 29.9894 9.33237C29.9851 11.6741 28.9275 13.7611 27.27 15.164C25.6189 13.7568 24.57 11.6633 24.5743 9.32158ZM32.8038 3.34101C32.1218 4.97914 32.2491 6.75324 33.0002 8.22086C34.5692 7.71798 35.916 6.56115 36.6002 4.92086C37.2822 3.28273 37.1549 1.50863 36.4038 0.0410077C34.8369 0.541727 33.4879 1.70072 32.8038 3.34101ZM17.9613 4.87986C18.6369 6.52014 19.9815 7.68561 21.5484 8.19065C22.3038 6.72518 22.4397 4.95539 21.762 3.31079C21.0865 1.6705 19.7419 0.505036 18.175 0C17.4174 1.46547 17.2836 3.23525 17.9613 4.87986ZM8.55342 16.4655C10.1915 17.1475 11.9656 17.0201 13.4333 16.2691C12.9304 14.7 11.7736 13.3532 10.1333 12.6691C8.49514 11.987 6.72104 12.1144 5.25342 12.8633C5.7563 14.4324 6.91313 15.7813 8.55342 16.4655ZM44.3915 12.7489C42.7513 13.4245 41.5858 14.7691 41.0807 16.336C42.5462 17.0914 44.316 17.2273 45.9606 16.5496C47.6009 15.8741 48.7664 14.5295 49.2714 12.9626C47.8059 12.205 46.034 12.0712 44.3915 12.7489ZM39.9498 19.3597C37.6081 19.3554 35.5167 20.4043 34.1074 22.0576C35.5081 23.7151 37.5973 24.7727 39.939 24.777C42.2807 24.7813 44.3721 23.7324 45.7815 22.0791C44.3829 20.4216 42.2915 19.364 39.9498 19.3597ZM34.3405 11.1583C32.6829 12.8094 31.9426 15.0324 32.1174 17.195C34.28 17.3763 36.5052 16.6468 38.1649 14.9957C39.8225 13.3446 40.5628 11.1216 40.3879 8.95899C38.2232 8.77554 36.0002 9.50719 34.3405 11.1583ZM14.5923 19.3597C12.2505 19.364 10.1635 20.4216 8.76061 22.0791C10.1656 23.7324 12.2613 24.7813 14.6031 24.777C16.9448 24.7727 19.0318 23.7151 20.4347 22.0576C19.0275 20.4043 16.934 19.3554 14.5923 19.3597ZM20.2016 11.1583C18.5441 9.50719 16.3189 8.7777 14.1541 8.95899C13.9793 11.1216 14.7196 13.3446 16.3772 14.9957C18.0347 16.6468 20.262 17.3763 22.4246 17.195C22.5995 15.0302 21.8592 12.8094 20.2016 11.1583Z" fill="#34372D"/>
    </symbol>
    <symbol id="alberta" xmlns="http://www.w3.org/2000/svg" viewBox="0 0 209 60" fill="none">
        <path d="M73.0159 37.1062L77.3545 18.8929H81.921L86.0317 37.1062H82.3769L81.4652 32.4827H77.4685L76.5568 37.1062H73.0159ZM78.0952 29.8575H81.0053L80.0936 24.6642C79.9227 23.8095 79.8657 23.0077 79.7517 22.153C79.7517 21.7542 79.6947 21.3553 79.6378 20.9524H79.5808C79.5238 21.3512 79.4668 21.7501 79.4668 22.153C79.3529 23.0077 79.2959 23.8095 79.1249 24.6642L78.0952 29.8575Z" fill="#34372D"/>
        <path d="M90.7693 18.897H87.6313V37.1102H90.7693V18.897Z" fill="#34372D"/>
        <path d="M93.1705 18.897H96.3085V23.2926C96.3085 23.7485 96.2515 24.1473 96.2515 24.8351H96.3085C96.9353 23.5205 97.794 23.0647 99.1046 23.0647C101.16 23.1217 102.304 24.1514 102.361 27.9161V32.8815C102.304 35.0509 101.734 37.5051 99.1046 37.5051C97.79 37.4481 96.9353 37.0492 96.1945 35.6776H96.1375V37.1632H93.1135V18.8929H93.1705V18.897ZM96.3085 32.6536C96.3085 34.2531 96.8213 35.1078 97.851 35.1078C98.8197 35.1078 99.1656 34.0822 99.2226 32.7676V28.201C99.1086 26.8295 99.2796 25.5759 97.794 25.5759C96.3085 25.5759 96.2515 27.5173 96.3085 28.5999V32.6536Z" fill="#34372D"/>
        <path d="M104.017 28.1441C103.846 24.8881 105.503 23.0647 108.641 23.0647C113.036 23.0647 113.492 25.348 113.492 29.1168V30.9442H107.155V32.9426C107.155 34.713 107.839 35.0549 108.812 35.0549C109.955 35.0549 110.297 34.2002 110.297 32.4868H113.435C113.549 35.5677 112.291 37.5091 109.04 37.5091C105.385 37.5091 103.903 35.7957 104.017 31.7419V28.1441ZM110.354 28.4859V27.2853C110.354 25.9137 109.955 25.4579 108.698 25.4579C107.098 25.4579 107.212 26.6585 107.212 27.9121V28.4819H110.354V28.4859Z" fill="#34372D"/>
        <path d="M118.917 25.8608C119.373 24.8921 119.715 24.3182 120.232 23.9194C121.144 23.1786 121.718 23.2356 122.173 23.1786V26.9475C120.403 26.7765 119.092 27.2324 119.035 29.2307V37.1673H115.897V23.4676H118.921L118.917 25.8608Z" fill="#34372D"/>
        <path d="M130.106 37.1632C128.222 37.3911 125.596 37.5621 125.596 34.9939V25.7469H124.282V23.4636H125.539V19.6948H128.738V23.4636H130.053V25.7469H128.738V34.2532C128.795 34.823 129.707 34.766 130.053 34.709L130.106 37.1632Z" fill="#34372D"/>
        <path d="M137.928 37.1062C137.7 36.6504 137.7 36.1945 137.757 35.6776H137.7C136.96 36.8213 135.987 37.4481 134.904 37.4481C132.336 37.4481 131.25 36.1335 131.25 33.3374C131.25 30.1994 133.476 29.4546 135.93 28.429C137.245 27.8592 137.757 27.2853 137.473 26.1457C137.302 25.5189 136.846 25.4619 135.987 25.4619C134.558 25.4619 134.33 26.2027 134.33 27.4603H131.363C131.363 24.8352 132.161 23.0647 136.158 23.0647C140.44 23.0647 140.724 25.348 140.667 27.1184V35.2259C140.667 35.8527 140.781 36.5405 140.952 37.1673L137.928 37.1062ZM137.53 29.9145C136.732 30.4273 135.816 31.0012 134.961 31.685C134.506 32.0838 134.449 32.7717 134.449 33.3415C134.449 34.3671 134.79 35.1119 135.934 35.1119C137.818 35.1119 137.477 32.7717 137.534 31.457V29.9145H137.53Z" fill="#34372D"/>
        <path d="M149.63 37.1062V18.897H153V26.1456H157.794V18.897H161.164V37.1062H157.794V28.7708H153V37.1062H149.63Z" fill="#34372D"/>
        <path d="M163.561 28.1441C163.39 24.8881 165.047 23.0647 168.185 23.0647C172.58 23.0647 173.036 25.348 173.036 29.1168V30.9442H166.756V32.9426C166.756 34.713 167.44 35.0549 168.413 35.0549C169.556 35.0549 169.898 34.2002 169.898 32.4868H173.036C173.15 35.5677 171.893 37.5091 168.641 37.5091C164.986 37.5091 163.504 35.7957 163.618 31.7419L163.561 28.1441ZM169.898 28.4859V27.2853C169.898 25.9137 169.499 25.4579 168.242 25.4579C166.642 25.4579 166.756 26.6585 166.756 27.9121V28.4819H169.898V28.4859Z" fill="#34372D"/>
        <path d="M181.656 37.1062C181.428 36.6504 181.429 36.1945 181.485 35.6776H181.428C180.688 36.8213 179.715 37.4481 178.632 37.4481C176.064 37.4481 174.978 36.1335 174.978 33.3374C174.978 30.1994 177.204 29.4546 179.658 28.429C180.973 27.8592 181.485 27.2853 181.201 26.1457C181.03 25.5189 180.574 25.4619 179.715 25.4619C178.286 25.4619 178.059 26.2027 178.059 27.4603H175.035C175.035 24.8352 175.832 23.0647 179.829 23.0647C184.111 23.0647 184.396 25.348 184.339 27.1184V35.2259C184.339 35.8527 184.453 36.5405 184.623 37.1673L181.656 37.1062ZM181.258 29.9145C180.46 30.4273 179.544 31.0012 178.689 31.685C178.234 32.0838 178.177 32.7717 178.177 33.3415C178.177 34.3671 178.518 35.1119 179.662 35.1119C181.547 35.1119 181.205 32.7717 181.262 31.457V29.9145H181.258Z" fill="#34372D"/>
        <path d="M190.106 18.897H186.968V37.1102H190.106V18.897Z" fill="#34372D"/>
        <path d="M197.529 37.1632C195.645 37.3911 193.02 37.5621 193.02 34.9939V25.7469H191.705V23.4636H192.963V19.6948H196.162V23.4636H197.477V25.7469H196.162V34.2532C196.219 34.823 197.131 34.766 197.477 34.709L197.529 37.1632Z" fill="#34372D"/>
        <path d="M199.186 37.1062V18.8929H202.324V24.8311H202.381C203.293 23.2316 204.55 23.0606 205.234 23.0606C207.005 23.0606 208.49 24.0863 208.372 26.5446V37.1062H205.234V27.7452C205.234 26.4306 205.063 25.5189 203.919 25.4619C202.719 25.405 202.32 26.5486 202.377 27.9731V37.1062H199.186Z" fill="#34372D"/>
        <path d="M81.4081 46.8701C81.4081 45.2137 81.2941 43.6141 79.4097 43.6141C78.266 43.6141 77.5253 44.07 77.5253 45.3276C77.5253 46.6992 78.38 47.269 79.4667 47.9528C80.6103 48.6365 82.6657 50.0081 83.5774 50.9198C84.721 52.0635 85.1199 53.1461 85.1199 54.7456C85.1199 58.1726 82.8366 59.9959 79.5237 59.9959C75.4699 59.9959 73.9844 57.7126 73.9844 54.4566V53.142H77.4113V54.2287C77.3543 55.9992 77.8672 57.3097 79.5237 57.3097C80.9522 57.3097 81.636 56.569 81.636 55.1974C81.636 54.1107 81.1232 53.4269 80.2644 52.8001C78.4939 51.4286 76.2676 50.4029 74.8961 48.5755C74.3263 47.7778 74.0414 46.748 74.0414 45.7794C74.0414 42.6984 75.8118 40.9849 79.4097 40.9849C84.835 40.9849 84.66 45.1526 84.721 46.98L81.4081 46.8701Z" fill="#34372D"/>
        <path d="M87.0613 50.582C86.8904 47.326 88.5469 45.5027 91.6849 45.5027C96.0805 45.5027 96.5363 47.786 96.5363 51.5548V53.3822H90.2563V55.3806C90.2563 57.151 90.9401 57.4929 91.9128 57.4929C93.0565 57.4929 93.3983 56.6382 93.3983 54.9247H96.5363C96.6503 58.0057 95.3926 59.9471 92.1407 59.9471C88.4858 59.9471 87.0044 58.2336 87.1183 54.1799V50.582H87.0613ZM93.3983 50.9239V49.7233C93.3983 48.3517 92.9995 47.8958 91.7418 47.8958C90.1423 47.8958 90.2563 49.0965 90.2563 50.3501V50.9199L93.3983 50.9239Z" fill="#34372D"/>
        <path d="M101.962 48.2987C102.418 47.33 102.76 46.7562 103.276 46.3573C104.188 45.6166 104.762 45.6736 105.218 45.6166V49.3854C103.447 49.2145 102.137 49.6703 102.08 51.6687V59.6052H98.9419V45.9055H101.966V48.2987H101.962Z" fill="#34372D"/>
        <path d="M107.212 45.8405H110.639L111.953 53.4921C112.238 54.7497 112.352 56.919 112.409 57.5458H112.466C112.523 56.919 112.637 54.7497 112.922 53.4921L114.294 45.8405H117.55L114.412 59.5401H110.472L107.212 45.8405Z" fill="#34372D"/>
        <path d="M119.544 41.3309H122.682V44.184H119.544V41.3309ZM119.544 45.8405H122.682V59.5401H119.544V45.8405Z" fill="#34372D"/>
        <path d="M130.619 50.6389V49.0964C130.562 48.3557 130.22 47.9527 129.532 47.9527C128.331 47.9527 128.331 49.3243 128.331 51.0337V54.2897C128.274 56.9719 128.559 57.4277 129.532 57.5457C130.501 57.5457 130.501 56.6341 130.619 55.5474V54.2897H133.757V55.5474C133.757 58.4004 132.556 59.9999 129.418 59.9999C126.622 59.9999 125.022 58.5144 125.136 54.8636V50.411C125.136 46.5852 127.021 45.5596 129.418 45.5596C132.617 45.5596 133.757 47.558 133.757 49.6133V50.7L130.619 50.6389Z" fill="#34372D"/>
        <path d="M136.044 50.582C135.873 47.326 137.529 45.5027 140.667 45.5027C145.063 45.5027 145.519 47.786 145.519 51.5548V53.3822H139.182V55.3806C139.182 57.151 139.866 57.4929 140.838 57.4929C141.982 57.4929 142.324 56.6382 142.324 54.9247H145.462C145.576 58.0057 144.318 59.9471 141.066 59.9471C137.411 59.9471 135.93 58.2336 135.987 54.1799L136.044 50.582ZM142.381 50.9239V49.7233C142.381 48.3517 141.982 47.8958 140.724 47.8958C139.125 47.8958 139.239 49.0965 139.239 50.3501V50.9199L142.381 50.9239Z" fill="#34372D"/>
        <path d="M150.773 55.0346C150.545 57.5458 151.514 57.4888 152.259 57.4888C153.171 57.4888 153.801 56.862 153.573 55.9463C153.516 55.1485 152.605 54.7456 152.031 54.2898L150.317 53.0891C148.718 52.0024 147.692 50.7488 147.692 48.7505C147.692 46.6381 149.349 45.4375 152.43 45.4375C155.511 45.4375 156.882 47.037 156.825 50.004H153.626C153.683 48.4615 153.285 47.8917 152.141 47.8917C151.4 47.8917 150.826 48.2336 150.826 49.0354C150.826 49.8372 151.396 50.1791 152.027 50.6349L154.595 52.4053C155.393 52.8612 156.65 54.1758 156.764 55.0875C157.049 57.4847 156.422 59.9389 152.084 59.9389C150.427 59.9389 147.289 59.2552 147.631 55.0305L150.773 55.0346Z" fill="#34372D"/>
        <path d="M18.954 18.954H0V39.1086H18.954V18.954Z" fill="#34372D"/>
        <path d="M61.4855 18.954H42.5315V39.1086H61.4855V18.954Z" fill="#34372D"/>
        <path d="M40.7611 40.932H20.6064V59.886H40.7611V40.932Z" fill="#34372D"/>
        <path d="M20.7773 0V26.3736L31.0541 39.1046H40.7041V0H20.7773Z" fill="#34372D"/>
    </symbol>
    <symbol id="cardinal" xmlns="http://www.w3.org/2000/svg" viewBox="0 0 151 20" fill="none">
        <path d="M50.9503 6.20314H54.2103V19.7296H50.9503V6.20314ZM50.8962 0.428711H54.2643V3.58436H50.8962V0.428711Z" fill="#34372D"/>
        <path d="M87.7829 0H84.5229V19.7296H87.7829V0Z" fill="#34372D"/>
        <path d="M91.3674 0H93.0244V8.44729H100.243V0H101.9V19.7296H100.243V9.89186H93.0244V19.7296H91.3674V0Z" fill="#34372D"/>
        <path d="M112.646 12.0317C112.646 9.14643 111.468 7.43533 109.653 7.43533C107.567 7.43533 106.605 9.35886 106.605 12.0317H112.646ZM106.605 13.4763C106.605 18.5014 109.865 18.5555 110.506 18.5555C111.414 18.5555 112.646 18.1267 113.446 17.4315L113.554 19.1426C112.913 19.5172 112.005 19.8919 110.398 19.8919C105.052 19.8919 104.89 14.2797 104.89 12.9433C104.89 8.34689 106.655 5.99463 109.649 5.99463C113.017 5.99463 114.461 8.66748 114.461 13.4801H106.605V13.4763Z" fill="#34372D"/>
        <path d="M130.823 0H129.22V19.7296H130.823V0Z" fill="#34372D"/>
        <path d="M136.597 3.04755V6.2032H139.378V7.53963H136.597V16.4697C136.597 17.5396 136.759 18.6095 138.146 18.6095C138.787 18.6095 139.108 18.4473 139.374 18.3971V19.7876C139.212 19.8958 138.787 20 137.825 20C135.473 20 134.99 18.4512 134.99 16.9525V7.59757H132.959V6.25728H134.99V3.53036L136.597 3.04755Z" fill="#34372D"/>
        <path d="M21.9199 13.1016H20.7419C19.193 13.1016 17.2115 13.5844 17.2115 15.6663C17.2115 16.8945 18.0149 17.752 19.2973 17.752C21.0624 17.752 21.9701 16.3074 21.9701 14.5964V13.0977M15.5043 7.00656C16.412 6.57782 17.6982 5.99072 19.5677 5.99072C23.631 5.99072 24.9674 7.96832 24.9674 11.0699V17.3233C24.9674 18.285 25.0756 19.1927 25.1297 19.6755H22.1903C22.0281 19.1425 21.9779 18.4975 21.9779 18.1267H21.9238C21.495 18.6095 20.3208 19.8918 18.181 19.8918C15.7747 19.8918 14.1177 18.4473 14.1177 15.9366C14.1177 12.302 17.3776 11.3403 20.6414 11.3403H21.8697V10.8073C21.8697 9.47083 21.2285 8.24256 19.3552 8.24256C17.6982 8.24256 16.2536 9.04596 15.6125 9.57898L15.5043 7.00656Z" fill="#34372D"/>
        <path d="M78.2696 13.1016H77.0915C75.5427 13.1016 73.5612 13.5844 73.5612 15.6663C73.5612 16.8945 74.3646 17.752 75.647 17.752C77.4121 17.752 78.3198 16.3074 78.3198 14.5964L78.2696 13.1016ZM71.7999 7.00656C72.7076 6.57782 73.9938 5.99072 75.8633 5.99072C79.9266 5.99072 81.263 7.96832 81.263 11.0699V17.3233C81.263 18.285 81.3712 19.1927 81.4755 19.6755H78.5361C78.3739 19.1425 78.3237 18.4975 78.3237 18.1267H78.2696C77.8409 18.6095 76.6667 19.8918 74.5268 19.8918C72.1205 19.8918 70.4094 18.4473 70.4094 15.9366C70.4094 12.302 73.6694 11.3403 76.9332 11.3403H78.2155V10.8073C78.2155 9.47083 77.5744 8.24256 75.701 8.24256C74.0981 8.24256 72.5995 9.04596 72.0124 9.57898L71.7999 7.00656Z" fill="#34372D"/>
        <path d="M28.2273 8.4473C28.2273 7.59369 28.1732 6.79028 28.1191 6.20318H31.0585C31.0585 7.05679 31.1666 7.2731 31.1666 8.07263H31.2207C31.4872 7.48554 32.1284 5.98688 34.697 5.98688C34.9094 5.98688 35.0716 6.04096 35.23 6.04096V9.08846C35.0678 9.03439 34.7472 8.98031 34.3223 8.98031C32.9859 8.98031 31.4872 9.78371 31.4872 12.3484V19.7258H28.2273V8.4473Z" fill="#34372D"/>
        <path d="M41.8077 17.5357C43.7312 17.5357 44.3724 15.45 44.3724 12.8853C44.3724 10.2665 43.6231 8.33914 41.8579 8.33914C40.0387 8.33914 39.3975 10.1043 39.3975 12.7771C39.4014 15.9869 39.9344 17.5357 41.8077 17.5357ZM47.6864 0V17.3774C47.6864 18.3391 47.7405 19.1966 47.7946 19.6756H44.7471C44.693 19.3009 44.6389 18.6057 44.6389 17.9104H44.5849C44.4226 18.2851 43.5149 19.888 40.9502 19.888C37.5822 19.888 36.1917 16.6821 36.1917 12.9394C36.1917 8.50135 37.8487 5.93667 41.2168 5.93667C43.4107 5.93667 44.2102 7.27309 44.3724 7.5396H44.4265V0H47.6864Z" fill="#34372D"/>
        <path d="M12.4025 19.355C12.0278 19.5172 11.012 19.9962 8.44728 19.9962C2.88528 19.9962 0 15.9328 0 10.5331C0 5.18737 2.88528 1.06995 8.33913 1.06995C10.7455 1.06995 12.0278 1.60297 12.4025 1.76519L12.2402 4.81271C11.9197 4.60027 10.9038 3.85094 8.764 3.85094C5.98301 3.85094 3.57667 5.77446 3.57667 10.479C3.57667 15.2376 5.98301 17.1611 8.764 17.1611C10.421 17.1611 11.4909 16.7864 12.2402 16.1993L12.4025 19.355Z" fill="#34372D"/>
        <path d="M57.5784 8.44728C57.5784 7.59366 57.5243 6.79025 57.4702 6.20316H60.5177C60.5177 6.63189 60.6259 7.59366 60.6259 7.91425H60.6799C60.9465 7.48551 61.8039 5.99072 64.2103 5.99072C67.0453 5.99072 68.2736 7.80995 68.2736 10.4287V19.7296H65.0137V10.9618C65.0137 9.30474 64.0519 8.66357 62.9279 8.66357C61.858 8.66357 60.8422 9.25067 60.8422 10.9618V19.7296H57.5822L57.5784 8.44728Z" fill="#34372D"/>
        <path d="M141.568 0H143.171V7.43145H143.225C143.6 6.94864 144.454 5.98687 146.485 5.98687C149.05 5.98687 150.44 8.07262 150.44 9.94207V19.6717H148.783V10.3167C148.783 8.4975 147.714 7.3233 146.002 7.3233C144.291 7.3233 143.167 8.50136 143.167 10.3167V19.6717H141.564V0" fill="#34372D"/>
        <path d="M122.75 12.8853C119.915 12.8853 118.154 13.7389 118.154 15.8787C118.154 17.2152 119.007 18.4975 120.773 18.4975C121.522 18.4975 124.032 18.231 124.032 14.5423V12.9394L122.75 12.8853ZM124.032 10.479C124.032 8.60951 123.391 7.43146 121.093 7.43146C119.274 7.43146 117.992 8.71381 117.833 8.82196L117.567 7.16495C118.316 6.68213 119.436 5.98688 121.201 5.98688C124.998 5.98688 125.639 8.71381 125.639 10.1584V16.6821C125.639 17.698 125.693 18.7138 125.801 19.7296H124.253L124.144 18.0726H124.09C123.716 18.5014 123.02 19.8919 120.402 19.8919C117.837 19.8919 116.447 18.2889 116.447 15.8826C116.447 12.4604 119.386 11.5527 122.862 11.5527H124.04V10.479H124.032Z" fill="#34372D"/>
    </symbol>
    <symbol id="pfizer" xmlns="http://www.w3.org/2000/svg" viewBox="0 0 58 30" fill="none">
        <path d="M23.9519 0C18.3923 0 16.9686 5.38097 16.1721 8.29384L10.2333 30H13.6985L18.9628 10.7528H22.5611L20.1659 19.5115H23.6311L26.5038 9.00838H19.4404C19.8031 7.68502 20.1877 6.27415 20.5031 5.12395C21.0846 3.00036 22.0324 1.45826 23.4123 1.5093C24.938 1.5658 24.1615 2.56836 23.9519 3.33212C23.6621 4.38935 24.4422 5.45024 25.8093 5.45024C28.7787 5.45206 29.5097 0 23.9519 0ZM4.29821 3.79876L0 19.5115H3.61101L5.20233 13.693H8.33941C11.8009 13.693 14.0977 11.7827 14.7193 9.12687C15.2989 6.64783 13.8516 3.79876 9.97266 3.79876H4.29821ZM7.4043 5.6471H8.79329C10.2479 5.6471 11.3999 6.81006 11.1229 8.83704C10.864 10.7145 8.8261 11.8392 7.04885 11.8392H5.71272L7.4043 5.6471ZM41.6533 8.69122C38.6165 8.69122 36.4254 11.3033 35.9005 13.9154C35.3956 16.4236 36.8338 19.7594 40.7948 19.7594C43.611 19.7594 45.0255 18.5199 45.0255 18.5199L44.3784 16.9194C44.3784 16.9194 43.1954 17.8837 41.5458 17.8837C39.8961 17.8837 38.8626 16.5822 39.0904 14.5078H45.8257C46.307 13.2829 46.5713 8.69122 41.6533 8.69122ZM55.0784 8.83157C52.8199 8.83157 51.4874 11.1648 51.4874 11.1648L52.0762 9.00838H48.611L45.7382 19.5115H49.2034C49.2034 19.5115 50.0383 16.4437 50.463 14.9107C51.1192 12.5155 52.4553 11.0171 53.0988 10.9552C53.8407 10.8841 53.7696 12.6741 55.2187 12.6741C57.4152 12.6741 57.8892 8.83157 55.0784 8.83157ZM27.8071 9.00838L27.3296 10.7528H31.7207L24.8177 19.5115H34.5662L35.0438 17.767H30.0893L36.9923 9.00838H27.8071ZM41.6405 10.4247C43.5235 10.4247 43.0952 12.9129 43.0952 12.9129L39.3219 12.9038C39.3219 12.9038 39.949 10.4247 41.6405 10.4247Z" fill="#34372D"/>
    </symbol>
    <symbol id="arrow" width="106" height="277" viewBox="0 0 106 277" fill="none" xmlns="http://www.w3.org/2000/svg">
        <path d="M33.498 1.5C33.498 1.5 -27.5001 44.5 20.498 86C68.496 127.5 70.5 128.5 70.5 128.5C70.5 128.5 88.9981 140.5 77.9979 161.5C66.9978 182.5 13.998 189.5 15.498 222.5C16.998 255.5 104.998 275.5 104.998 275.5" stroke="#5E7B5A" stroke-width="3"/>
    </symbol>
    <symbol id="diagram" viewBox="0 0 76 64" fill="none" xmlns="http://www.w3.org/2000/svg">
        <g id="Group 8">
            <rect id="Rectangle 57" y="24" width="20" height="40" fill="#5E7B5A"/>
            <rect id="Rectangle 58" x="28" y="40" width="20" height="24" fill="#34372D"/>
            <rect id="Rectangle 59" x="56" width="20" height="64" fill="#5E7B5A"/>
        </g>
    </symbol>
    <symbol id="close" xmlns="http://www.w3.org/2000/svg" viewBox="0 0 90 90" fill="none">
        <path
                d="M86.9183 28.6336C83.1318 18.9356 76.0999 10.8505 67.0206 5.75595C57.9412 0.661382 47.3763 -1.12745 37.126 0.69425C26.8756 2.51595 17.574 7.83547 10.806 15.7464C4.03805 23.6574 0.222474 33.6703 0.00942346 44.0791C-0.203627 54.4879 3.19903 64.6486 9.63761 72.8299C16.0762 81.0111 25.1523 86.7068 35.3196 88.9464C45.4868 91.1861 56.1161 89.831 65.3963 85.1123C74.6764 80.3935 82.0334 72.6029 86.2135 63.0679L85.1019 62.5806C81.0345 71.8584 73.8761 79.4389 64.8462 84.0304C55.8163 88.6219 45.4737 89.9404 35.5807 87.7612C25.6876 85.582 16.8563 80.0399 10.5914 72.0793C4.32642 64.1187 1.01553 54.232 1.22284 44.104C1.43014 33.9759 5.14281 24.233 11.7282 16.5354C18.3137 8.83781 27.3644 3.66176 37.3383 1.88919C47.3122 0.116626 57.5922 1.85721 66.4267 6.81438C75.2611 11.7716 82.1034 19.6386 85.7877 29.075L86.9183 28.6336Z"
                fill="#F08E65" />
        <path
                d="M59.5545 57.4752C60.1485 58.0693 60.1485 58.9604 59.5545 59.5545C59.2574 59.8515 58.8119 60 58.5148 60C58.2178 60 57.7723 59.8515 57.4752 59.5545L45 47.0792L32.5248 59.5545C32.2277 59.8515 31.7822 60 31.4851 60C31.1881 60 30.7426 59.8515 30.4455 59.5545C29.8515 58.9604 29.8515 58.0693 30.4455 57.4752L42.9208 45L30.4455 32.5248C29.8515 31.9307 29.8515 31.0396 30.4455 30.4455C31.0396 29.8515 31.9307 29.8515 32.5248 30.4455L45 42.9208L57.4752 30.4455C58.0693 29.8515 58.9604 29.8515 59.5545 30.4455C60.1485 31.0396 60.1485 31.9307 59.5545 32.5248L47.0792 45L59.5545 57.4752Z"
                fill="#010101" />
    </symbol>
    <symbol id="coverage" xmlns="http://www.w3.org/2000/svg" viewBox="0 0 80 80" fill="none">
        <path d="M39.9702 9.76421V70.8159" stroke="#F08E65" stroke-width="2" stroke-miterlimit="10" stroke-linecap="round" stroke-linejoin="round"/>
        <mask id="mask0_7_169" style="mask-type:luminance" maskUnits="userSpaceOnUse" x="0" y="0" width="80" height="80">
            <path d="M0 0H80V80H0V0Z" fill="white"/>
        </mask>
        <g mask="url(#mask0_7_169)">
            <path d="M44.2386 3.21648L42.4223 1.93866C40.9692 0.916321 39.0308 0.916321 37.5777 1.93866L35.7614 3.21648C28.7131 8.17554 20.4341 11.0957 11.8344 11.6562C9.62031 11.8005 7.89844 13.6384 7.89844 15.8569V26.8659C7.89844 45.1944 16.457 62.4718 31.0378 73.5777L36.2852 77.5745C38.4797 79.246 41.5203 79.246 43.7148 77.5745L48.9622 73.5777C63.543 62.4718 72.1016 45.1944 72.1016 26.8659V15.8569C72.1016 13.6384 70.3797 11.8005 68.1656 11.6562C59.5658 11.0957 51.2869 8.17554 44.2386 3.21648Z" stroke="#F08E65" stroke-width="2" stroke-miterlimit="10" stroke-linecap="round" stroke-linejoin="round"/>
            <path d="M15.0764 25.5984V19.7395C15.0764 18.987 15.6666 18.3707 16.418 18.3301C26.1917 17.8029 36.435 11.7551 39.248 9.97992C39.708 9.68961 40.2917 9.68961 40.7517 9.97992C43.5649 11.7551 53.8081 17.8029 63.5817 18.3301C64.3331 18.3707 64.9235 18.987 64.9235 19.7395V26.6663C64.9235 34.5601 63.0713 42.4713 59.5674 49.5446C57.8753 52.9605 55.7942 56.1884 53.3874 59.152" stroke="#F08E65" stroke-width="2" stroke-miterlimit="10" stroke-linecap="round" stroke-linejoin="round"/>
            <path d="M49.5943 63.3363C48.028 64.8857 46.3635 66.3344 44.6127 67.668L40.8557 70.5297C40.3502 70.9146 39.6497 70.9146 39.1444 70.5297L35.3874 67.668C29.1077 62.8849 23.9364 56.618 20.4325 49.5446C17.5988 43.8241 15.8454 37.5555 15.2783 31.1915" stroke="#F08E65" stroke-width="2" stroke-miterlimit="10" stroke-linecap="round" stroke-linejoin="round"/>
        </g>
    </symbol>
    <symbol id="support" xmlns="http://www.w3.org/2000/svg" viewBox="0 0 82 80" fill="none">
        <path d="M76.4463 32.2211H75.0812C75.0723 30.4348 73.9066 28.8604 72.2008 28.3305C70.6229 12.2552 57.1059 0 40.9534 0C24.8008 0 11.2838 12.2552 9.70595 28.3305C8.00009 28.8604 6.83447 30.4348 6.82556 32.2211H5.46045C2.44473 32.2211 0 34.6658 0 37.6815V48.6024C0 51.6181 2.44473 54.0629 5.46045 54.0629H6.82556C6.82556 56.3247 8.6591 58.1582 10.9209 58.1582H12.286V63.6187C12.286 70.404 17.7866 75.9047 24.572 75.9047H28.8585C29.4793 78.3092 31.6444 79.9919 34.1278 80H47.7789C50.7946 80 53.2394 77.5553 53.2394 74.5396C53.2394 71.5238 50.7946 69.0791 47.7789 69.0791H34.1278C31.6444 69.0872 29.4793 70.7699 28.8585 73.1744H24.572C19.2945 73.1744 15.0162 68.8962 15.0162 63.6187V58.1582H16.3813C18.6431 58.1582 20.4767 56.3247 20.4767 54.0629V32.2211C20.475 30.5511 19.4595 29.0495 17.9103 28.4261C19.3042 16.7569 29.2012 7.97168 40.9534 7.97168C52.7055 7.97168 62.6026 16.7569 63.9965 28.4261C62.4473 29.0495 61.4318 30.5511 61.43 32.2211V54.0629C61.43 56.3247 63.2636 58.1582 65.5254 58.1582H70.9858C73.2476 58.1582 75.0812 56.3247 75.0812 54.0629H76.4463C79.462 54.0629 81.9067 51.6181 81.9067 48.6024V37.6815C81.9067 34.6658 79.462 32.2211 76.4463 32.2211ZM34.1278 71.8093H47.7789C49.2868 71.8093 50.5091 73.0317 50.5091 74.5396C50.5091 76.0474 49.2868 77.2698 47.7789 77.2698H34.1278C32.6199 77.2698 31.3976 76.0474 31.3976 74.5396C31.3976 73.0317 32.6199 71.8093 34.1278 71.8093ZM5.46045 51.3326C3.95259 51.3326 2.73022 50.1103 2.73022 48.6024V37.6815C2.73022 36.1737 3.95259 34.9513 5.46045 34.9513H6.82556V51.3326H5.46045ZM17.7465 54.0629C17.7465 54.8168 17.1353 55.428 16.3813 55.428H10.9209C10.167 55.428 9.55578 54.8168 9.55578 54.0629V32.2211C9.55578 31.4671 10.167 30.856 10.9209 30.856H16.3813C17.1353 30.856 17.7465 31.4671 17.7465 32.2211V54.0629ZM40.9534 4.91884C27.6983 4.93589 16.589 14.9444 15.1937 28.1257H12.4635C14.0855 13.616 26.3533 2.64326 40.9534 2.64326C55.5535 2.64326 67.8212 13.616 69.4433 28.1257H66.713C65.3178 14.9444 54.2084 4.93589 40.9534 4.91884ZM72.3509 54.0629C72.3509 54.8168 71.7398 55.428 70.9858 55.428H65.5254C64.7714 55.428 64.1603 54.8168 64.1603 54.0629V32.2211C64.1603 31.4671 64.7714 30.856 65.5254 30.856H70.9858C71.7398 30.856 72.3509 31.4671 72.3509 32.2211V54.0629ZM79.1765 48.6024C79.1765 50.1103 77.9541 51.3326 76.4463 51.3326H75.0812V34.9513H76.4463C77.9541 34.9513 79.1765 36.1737 79.1765 37.6815V48.6024Z" fill="#F08E65"/>
    </symbol>
    <symbol id="affordable" xmlns="http://www.w3.org/2000/svg" viewBox="0 0 83 80" fill="none">
        <path d="M50.5242 49.4049C50.5204 52.0005 49.5593 54.5034 47.8248 56.4343C46.0902 58.3652 43.7043 59.5883 41.124 59.8694V65.6122C41.124 65.9102 41.0056 66.196 40.7949 66.4067C40.5842 66.6174 40.2984 66.7358 40.0004 66.7358C39.7024 66.7358 39.4166 66.6174 39.2059 66.4067C38.9952 66.196 38.8768 65.9102 38.8768 65.6122V59.8695C36.909 59.6566 35.0408 58.8943 33.4858 57.6698C31.9307 56.4452 30.7516 54.8079 30.0831 52.9448C30.0335 52.8058 30.0118 52.6584 30.0192 52.511C30.0266 52.3636 30.0629 52.2191 30.1262 52.0857C30.2539 51.8164 30.4833 51.6088 30.7641 51.5086C31.0448 51.4085 31.3539 51.424 31.6232 51.5517C31.8926 51.6794 32.1001 51.9089 32.2003 52.1896C32.7107 53.618 33.6037 54.8787 34.7818 55.8342C35.9599 56.7896 37.3778 57.4031 38.8808 57.6076C40.3838 57.8121 41.9141 57.5998 43.3046 56.9939C44.6952 56.388 45.8926 55.4117 46.7661 54.1717C47.6396 52.9316 48.1557 51.4754 48.2581 49.962C48.3604 48.4487 48.045 46.9363 47.3464 45.5899C46.6478 44.2435 45.5927 43.1149 44.2964 42.3273C43.0001 41.5397 41.5123 41.1234 39.9954 41.1237C37.3017 41.1219 34.7111 40.0875 32.757 38.2335C30.8028 36.3794 29.6337 33.8468 29.4904 31.1569C29.3471 28.4669 30.2404 25.8244 31.9865 23.7732C33.7325 21.722 36.1985 20.4182 38.8768 20.1302V14.3879C38.8768 14.09 38.9952 13.8042 39.2059 13.5934C39.4166 13.3827 39.7024 13.2644 40.0004 13.2644C40.2984 13.2644 40.5842 13.3827 40.7949 13.5934C41.0056 13.8042 41.124 14.09 41.124 14.3879V20.1318C43.0915 20.3467 44.959 21.11 46.5137 22.3348C48.0684 23.5596 49.2477 25.1965 49.9173 27.059C50.0176 27.3397 50.0024 27.6487 49.8749 27.9182C49.7474 28.1876 49.5181 28.3953 49.2374 28.4957C48.9567 28.5961 48.6477 28.5808 48.3783 28.4533C48.1088 28.3258 47.9011 28.0965 47.8007 27.8158C47.2915 26.3867 46.3995 25.125 45.222 24.1683C44.0445 23.2117 42.6269 22.5969 41.1238 22.391C39.6207 22.1851 38.09 22.3962 36.6986 23.001C35.3073 23.6058 34.1089 24.5813 33.2341 25.8208C32.3594 27.0604 31.842 28.5164 31.7384 30.03C31.6348 31.5436 31.949 33.0565 32.6467 34.4037C33.3444 35.7509 34.3987 36.8805 35.6947 37.6693C36.9906 38.458 38.4783 38.8756 39.9954 38.8765C42.7868 38.8797 45.4629 39.9899 47.4367 41.9637C49.4105 43.9374 50.5209 46.6135 50.5242 49.4049ZM78.4864 29.1012C80.7702 37.166 80.4629 45.7445 77.6077 53.6252C74.7526 61.5058 69.494 68.2905 62.5746 73.021C55.6551 77.7514 47.4244 80.1887 39.0449 79.9886C30.6653 79.7885 22.5604 76.961 15.8746 71.9056C9.18886 66.8502 4.26013 59.8222 1.78449 51.8143C-0.691151 43.8063 -0.588611 35.2229 2.07763 27.2764C4.74387 19.3298 9.83908 12.4216 16.6437 7.52733C23.4483 2.63307 31.6185 7.41437e-05 40.0004 0.000181893C48.6589 -0.0260523 57.0873 2.78617 63.9952 8.00626C66.7685 6.81898 69.8675 6.62922 72.7649 7.46925C75.6623 8.30927 78.1792 10.1272 79.8874 12.6138C81.5955 15.1003 82.3894 18.1019 82.134 21.1078C81.8786 24.1137 80.5896 26.9382 78.4864 29.1009V29.1012ZM69.1284 9.20128C66.9907 9.20109 64.901 9.8348 63.1234 11.0223C61.3459 12.2097 59.9603 13.8976 59.1421 15.8725C58.3238 17.8474 58.1095 20.0206 58.5263 22.1173C58.9431 24.214 59.9722 26.14 61.4836 27.6518C62.995 29.1636 64.9207 30.1932 67.0173 30.6106C69.1139 31.0279 71.2871 30.8142 73.2622 29.9965C75.2373 29.1787 76.9256 27.7936 78.1135 26.0164C79.3015 24.2391 79.9357 22.1496 79.9361 20.0119C79.9329 17.1463 78.7935 14.399 76.7676 12.3723C74.7417 10.3457 71.9948 9.20521 69.1292 9.20096L69.1284 9.20128ZM71.4849 32.8491C69.0049 33.3065 66.4454 33.0354 64.1162 32.0687C61.787 31.1019 59.7879 29.4808 58.3607 27.4016C56.9335 25.3224 56.1395 22.8742 56.0747 20.3531C56.0098 17.8321 56.677 15.3463 57.9954 13.1965C52.6805 9.6101 46.4122 7.70006 40.0004 7.71317C22.1968 7.71317 7.71286 22.1971 7.71286 40.0001C7.71286 57.8031 22.1968 72.2872 40.0004 72.2872C57.8013 72.2872 72.2829 57.8033 72.2829 40.0001C72.283 37.5941 72.0156 35.1956 71.4857 32.8487L71.4849 32.8491ZM77.7469 40.0001C77.7483 36.8684 77.3604 33.7488 76.5923 30.7128C75.683 31.3503 74.6958 31.8688 73.6549 32.2558C74.2365 34.7962 74.5302 37.394 74.5302 40.0001C74.5306 46.8302 72.5055 53.507 68.7112 59.1862C64.9169 64.8653 59.5236 69.2918 53.2136 71.9058C46.9035 74.5198 39.9599 75.2039 33.2611 73.8716C26.5622 72.5393 20.4088 69.2504 15.5791 64.4209C9.50536 58.348 5.91261 50.2296 5.50211 41.6504C5.09161 33.0712 7.89283 24.6469 13.359 18.0218C18.8252 11.3967 26.564 7.04634 35.065 5.81977C43.566 4.59319 52.219 6.57847 59.335 11.3881C60.067 10.5564 60.901 9.82042 61.8172 9.19759C55.4516 4.6547 47.8208 2.22413 40.0004 2.24849C19.1836 2.24849 2.2477 19.1838 2.2477 40.0001C2.2477 60.8164 19.1836 77.7517 40.0004 77.7517C60.8139 77.7517 77.7469 60.8164 77.7469 40.0001ZM65.6723 25.0693C65.7766 25.1738 65.9004 25.2567 66.0368 25.3133C66.1731 25.3699 66.3193 25.3991 66.467 25.3992C66.7649 25.3991 67.0507 25.2808 67.2614 25.0701L75.7926 16.5433C75.897 16.439 75.9798 16.3151 76.0364 16.1788C76.0929 16.0424 76.122 15.8963 76.122 15.7487C76.1221 15.6011 76.093 15.4549 76.0366 15.3185C75.9801 15.1822 75.8974 15.0582 75.793 14.9538C75.6887 14.8494 75.5648 14.7666 75.4285 14.7101C75.2921 14.6536 75.146 14.6245 74.9984 14.6244C74.8508 14.6244 74.7046 14.6534 74.5682 14.7099C74.4319 14.7663 74.3079 14.8491 74.2036 14.9534L66.4691 22.6855L64.0556 20.2688C63.9513 20.1644 63.8275 20.0815 63.6912 20.025C63.5549 19.9684 63.4088 19.9392 63.2612 19.9391C63.1136 19.939 62.9675 19.968 62.8311 20.0244C62.6947 20.0807 62.5708 20.1634 62.4663 20.2677C62.3619 20.372 62.2791 20.4958 62.2225 20.6321C62.1659 20.7684 62.1367 20.9145 62.1366 21.0621C62.1365 21.2097 62.1655 21.3558 62.2219 21.4922C62.2782 21.6286 62.3609 21.7525 62.4652 21.857L65.6723 25.0693Z" fill="#F08E65"/>
    </symbol>
    <symbol id="fast" xmlns="http://www.w3.org/2000/svg" viewBox="0 0 75 80" fill="none">
        <path d="M60.5 19.625C54.5 13.625 46.5 10 37.5 10C28.5 10 20.375 13.625 14.5 19.5C8.625 25.375 5 33.5 5 42.5C5 51.375 8.625 59.5 14.5 65.375C14.625 65.5 14.625 65.5 14.625 65.5C20.5 71.375 28.5 75 37.5 75C46.375 75 54.5 71.375 60.375 65.5C60.375 65.5 60.5 65.5 60.5 65.375C60.5 65.375 60.5 65.25 60.625 65.25C66.375 59.5 70 51.375 70 42.5C70 33.625 66.375 25.5 60.5 19.625ZM59.375 62.75L56.625 60C56.125 59.5 55.375 59.5 54.875 60C54.375 60.5 54.375 61.25 54.875 61.75L57.625 64.5C52.625 69.125 45.875 72.125 38.625 72.375V68.625C38.625 67.875 38.125 67.375 37.375 67.375C36.625 67.375 36.125 67.875 36.125 68.625V72.375C28.75 72.125 22.125 69.125 17.125 64.5L19.75 61.875C20.25 61.375 20.25 60.625 19.75 60.125C19.25 59.625 18.5 59.625 18 60.125L15.375 62.75C10.75 57.75 7.75 51 7.5 43.75H11.25C12 43.75 12.5 43.25 12.5 42.5C12.5 41.75 12 41.25 11.25 41.25H7.5C7.75 33.875 10.75 27.25 15.375 22.25L18 24.875C18.25 25.125 18.625 25.25 18.875 25.25C19.125 25.25 19.5 25.125 19.75 24.875C20.25 24.375 20.25 23.625 19.75 23.125L17.125 20.5C22.125 15.875 28.875 12.875 36.125 12.625V16.375C36.125 17.125 36.625 17.625 37.375 17.625C38.125 17.625 38.625 17.125 38.625 16.375V12.625C46 12.875 52.625 15.875 57.625 20.5L55 23.125C54.5 23.625 54.5 24.375 55 24.875C55.25 25.125 55.625 25.25 55.875 25.25C56.125 25.25 56.5 25.125 56.75 24.875L59.375 22.25C64 27.25 67 34 67.25 41.25H63.375C62.625 41.25 62.125 41.75 62.125 42.5C62.125 43.25 62.625 43.75 63.375 43.75H67.25C67 51.125 64 57.75 59.375 62.75Z" fill="#F08E65"/>
        <path d="M64.875 16.875L66.375 15.375L68.125 17.125C68.375 17.375 68.75 17.5 69 17.5C69.25 17.5 69.625 17.375 69.875 17.125L73.375 13.625C73.625 13.375 73.75 13.125 73.75 12.75C73.75 12.375 73.625 12.125 73.375 11.875L68.25 6.75C67.75 6.25 67 6.25 66.5 6.75L63 10.25C62.5 10.75 62.5 11.5 63 12L64.625 13.625L63.125 15.125C58.125 10.5 51.875 7.125 45 5.75V0H30V5.75C23.125 7.125 16.875 10.5 11.875 15.125L10.375 13.625L12 12C12.5 11.5 12.5 10.75 12 10.25L8.5 6.75C8 6.25 7.25 6.25 6.75 6.75L1.625 11.875C1.375 12.125 1.25 12.375 1.25 12.75C1.25 13.125 1.375 13.375 1.625 13.625L5.125 17.125C5.375 17.375 5.75 17.5 6 17.5C6.25 17.5 6.625 17.375 6.875 17.125L8.625 15.375L10.125 16.875C3.875 23.625 0 32.625 0 42.5C0 63.125 16.875 80 37.5 80C58.125 80 75 63.125 75 42.5C75 32.625 71.125 23.625 64.875 16.875ZM67.375 9.375L70.75 12.75L69 14.5L65.625 11.125L67.375 9.375ZM6 14.5L4.25 12.75L7.625 9.375L9.375 11.125L6 14.5ZM32.5 2.5H42.5V5H37.875C37.75 5 37.625 5 37.5 5C37.375 5 37.25 5 37.125 5H32.5V2.5ZM37.5 77.5C18.25 77.5 2.5 61.75 2.5 42.5C2.5 23.25 18 7.625 37.125 7.5H37.75C57 7.625 72.5 23.25 72.5 42.5C72.5 61.75 56.75 77.5 37.5 77.5Z" fill="#F08E65"/>
        <path d="M46.25 37.875L48.5 36.75C48.125 35.875 47.625 35.125 47 34.5L45 36C45.5 36.625 45.875 37.25 46.25 37.875Z" fill="#F08E65"/>
        <path d="M33.25 53C34.125 53.375 35 53.625 35.875 53.75L36.25 51.25C35.5 51.125 34.875 50.875 34.125 50.625L33.25 53Z" fill="#F08E65"/>
        <path d="M40.625 51L41.375 53.375C42.25 53.125 43.125 52.75 43.875 52.25L42.625 50.125C42 50.5 41.25 50.75 40.625 51Z" fill="#F08E65"/>
        <path d="M45.75 47.25L47.875 48.625C48.375 47.875 48.75 47 49.125 46.125L46.75 45.25C46.375 46 46.125 46.625 45.75 47.25Z" fill="#F08E65"/>
        <path d="M43.5 49.5L45 51.5C45.75 51 46.375 50.375 47 49.625L45 48.125C44.625 48.625 44.125 49.125 43.5 49.5Z" fill="#F08E65"/>
        <path d="M37.375 51.375L37.25 53.875C37.5 53.875 37.75 53.875 37.875 53.875C38.625 53.875 39.25 53.875 40 53.75L39.625 51.25C38.875 51.375 38.125 51.375 37.375 51.375Z" fill="#F08E65"/>
        <path d="M29.625 46.25L27.375 47.375C27.75 48.25 28.25 49 28.875 49.625L30.75 48C30.375 47.5 29.875 46.875 29.625 46.25Z" fill="#F08E65"/>
        <path d="M28.625 42.375C28.625 41.625 28.75 40.75 28.875 40.125L26.5 39.625C26.25 40.5 26.125 41.25 26.125 42.5H26.25L28.625 42.375Z" fill="#F08E65"/>
        <path d="M28.625 43.125L26.125 43.375C26.25 44.25 26.5 45.125 26.75 46L29.125 45.125C28.875 44.625 28.75 43.875 28.625 43.125Z" fill="#F08E65"/>
        <path d="M31.5 48.875L29.75 50.75C30.375 51.375 31.125 51.875 32 52.375L33.25 50.25C32.625 49.75 32.125 49.375 31.5 48.875Z" fill="#F08E65"/>
        <path d="M47.125 41L49.625 40.75C49.5 39.875 49.25 39 49 38.125L46.625 39C46.875 39.5 47.125 40.25 47.125 41Z" fill="#F08E65"/>
        <path d="M30.125 37L28 35.625C27.5 36.375 27.125 37.25 26.75 38.125L29.125 39C29.375 38.25 29.75 37.625 30.125 37Z" fill="#F08E65"/>
        <path d="M35.25 33.125L34.5 30.75C33.625 31 32.75 31.375 32 31.875L33.25 34C33.875 33.625 34.5 33.375 35.25 33.125Z" fill="#F08E65"/>
        <path d="M32.375 34.625L30.875 32.625C30.125 33.125 29.5 33.875 28.875 34.5L30.75 36.125C31.25 35.625 31.75 35.125 32.375 34.625Z" fill="#F08E65"/>
        <path d="M46 33.375C45.375 32.75 44.625 32.25 43.75 31.75L42.5 33.875C43.125 34.375 43.75 34.75 44.25 35.25L46 33.375Z" fill="#F08E65"/>
        <path d="M42.5 31.25C41.625 30.875 40.75 30.625 39.875 30.5L39.5 33C40.25 33.125 40.875 33.375 41.625 33.625L42.5 31.25Z" fill="#F08E65"/>
        <path d="M53.75 41.375H38.75V23.75C38.75 23 38.25 22.5 37.5 22.5C36.75 22.5 36.25 23 36.25 23.75V30.375C36.125 30.375 36 30.375 35.875 30.375L36.25 32.875V42.5C36.25 43.25 36.75 43.75 37.5 43.75H47.125C47.125 43.875 47 44.125 47 44.25L49.5 44.875C49.625 44.5 49.625 44.125 49.75 43.875H53.75C54.5 43.875 55 43.375 55 42.625C55 41.875 54.5 41.375 53.75 41.375Z" fill="#F08E65"/>
    </symbol>
    <symbol id="customer" xmlns="http://www.w3.org/2000/svg" viewBox="0 0 80 80" fill="none">
        <path d="M70.6667 61.5H65.8333C62.8007 61.5 60.3333 59.0327 60.3333 56V52.6667C60.3333 49.634 62.8007 47.1667 65.8333 47.1667C68.866 47.1667 71.3333 49.634 71.3333 52.6667V56C71.3333 56.7363 71.9303 57.3333 72.6667 57.3333C73.403 57.3333 74 56.7363 74 56V52.6667C74 48.1635 70.3365 44.5 65.8333 44.5C61.3302 44.5 57.6667 48.1635 57.6667 52.6667C57.892 54.6772 56.8113 58.2855 59.8575 61.5583C56.9003 61.885 54.3553 63.5978 52.8888 66.0318C51.2543 63.3188 48.2803 61.5002 44.8888 61.5002H40C36.9673 61.5002 34.5 59.0328 34.5 56.0002V52.6668C34.5 49.6342 36.9673 47.1668 40 47.1668C43.0327 47.1668 45.5 49.6342 45.5 52.6668V56.0002C45.5 56.7365 46.097 57.3335 46.8333 57.3335C47.5697 57.3335 48.1667 56.7365 48.1667 56.0002V52.6668C48.1667 49.6397 46.5097 46.9938 44.0565 45.5833C45.1763 44.777 46.5265 44.3335 47.9445 44.3335H52.8333C57.3365 44.3335 61 40.67 61 36.1668V32.8335C61 28.7573 57.998 25.3693 54.0888 24.7635C53.4028 20.6777 50.0978 17.5363 45.9703 17.064C49.0218 13.7917 47.9438 10.1515 48.1667 8.16667C48.1667 3.6635 44.5032 0 40 0C35.4968 0 31.8333 3.6635 31.8333 8.16667C32.0603 10.1887 30.973 13.786 34.0295 17.0638C32.6823 17.2203 31.3838 17.6667 30.2248 18.38C29.5977 18.766 29.4022 19.5873 29.7882 20.2143C30.174 20.8415 30.9955 21.0372 31.6225 20.651C32.6687 20.007 33.875 19.6667 35.111 19.6667H44.8888C48.0453 19.6667 50.6882 21.8382 51.3788 24.799C47.5677 25.4873 44.6667 28.8268 44.6667 32.8333C44.8937 34.8558 43.8067 38.4518 46.8617 41.7293C44.6848 41.9802 42.6813 42.9853 41.1695 44.5852C36.2323 43.8733 31.8333 47.7147 31.8333 52.6667C32.0603 54.6883 30.9727 58.2867 34.0302 61.5645C31.0942 61.9048 28.5692 63.6113 27.111 66.0317C25.4765 63.3187 22.5025 61.5 19.111 61.5H14.1667C11.134 61.5 8.66667 59.0327 8.66667 56V52.6667C8.66667 49.634 11.134 47.1667 14.1667 47.1667C17.1993 47.1667 19.6667 49.634 19.6667 52.6667V56C19.6667 56.7363 20.2637 57.3333 21 57.3333C21.7363 57.3333 22.3333 56.7363 22.3333 56V52.6667C22.3333 49.652 20.6902 47.0157 18.2537 45.6008C19.3778 44.7832 20.7367 44.3333 22.1667 44.3333H27C31.5032 44.3333 35.1667 40.6698 35.1667 36.1667V32.8333C35.1667 28.7772 32.1938 25.4037 28.3128 24.7737C27.628 20.6663 24.297 17.5108 20.143 17.0578C23.187 13.7867 22.1103 10.1567 22.3333 8.16667C22.3333 3.6635 18.6698 0 14.1667 0C9.6635 0 6 3.6635 6 8.16667C6.22733 10.1857 5.1375 13.7915 8.203 17.0708C3.588 17.631 0 21.5697 0 26.3333V34.1667C0 34.903 0.597 35.5 1.33333 35.5C2.06967 35.5 2.66667 34.903 2.66667 34.1667V26.3333C2.66667 22.6573 5.65733 19.6667 9.33333 19.6667H19.1112C22.2643 19.6667 24.905 21.8335 25.5992 24.7893C21.7615 25.456 18.8333 28.808 18.8333 32.8333C19.0608 34.8552 17.9713 38.4568 21.0347 41.736C18.8723 41.9962 16.8865 42.9993 15.3855 44.5913C10.4268 43.8462 6 47.7022 6 52.6667C6.22733 54.6855 5.1375 58.2915 8.203 61.5708C3.588 62.131 0 66.0697 0 70.8333V78.6667C0 79.403 0.597 80 1.33333 80C2.06967 80 2.66667 79.403 2.66667 78.6667V70.8333C2.66667 67.1573 5.65733 64.1667 9.33333 64.1667H19.1112C22.7872 64.1667 25.7778 67.1573 25.7778 70.8333V78.6667C25.7778 79.403 26.3748 80 27.1112 80C27.8475 80 28.4445 79.403 28.4445 78.6667V70.8333C28.4445 67.1573 31.4352 64.1667 35.1112 64.1667H44.889C48.565 64.1667 51.5557 67.1573 51.5557 70.8333V78.6667C51.5557 79.403 52.1527 80 52.889 80C53.6253 80 54.2223 79.403 54.2223 78.6667V70.8333C54.2223 67.1573 57.213 64.1667 60.889 64.1667H70.6667C74.3427 64.1667 77.3333 67.1573 77.3333 70.8333V78.6667C77.3333 79.403 77.9303 80 78.6667 80C79.403 80 80 79.403 80 78.6667V70.8333C80 65.687 75.813 61.5 70.6667 61.5ZM34.5 8.16667C34.5 5.134 36.9673 2.66667 40 2.66667C43.0327 2.66667 45.5 5.134 45.5 8.16667V11.5C45.5 14.5327 43.0327 17 40 17C36.9673 17 34.5 14.5327 34.5 11.5V8.16667ZM47.3333 32.8333C47.3333 29.8007 49.8007 27.3333 52.8333 27.3333C55.866 27.3333 58.3333 29.8007 58.3333 32.8333V36.1667C58.3333 39.1993 55.866 41.6667 52.8333 41.6667C49.8007 41.6667 47.3333 39.1993 47.3333 36.1667V32.8333ZM8.66667 8.16667C8.66667 5.134 11.134 2.66667 14.1667 2.66667C17.1993 2.66667 19.6667 5.134 19.6667 8.16667V11.5C19.6667 14.5327 17.1993 17 14.1667 17C11.134 17 8.66667 14.5327 8.66667 11.5V8.16667ZM21.5 32.8333C21.5 29.8007 23.9673 27.3333 27 27.3333C30.0327 27.3333 32.5 29.8007 32.5 32.8333V36.1667C32.5 39.1993 30.0327 41.6667 27 41.6667C23.9673 41.6667 21.5 39.1993 21.5 36.1667V32.8333ZM71.797 17.0708C74.8573 13.797 73.7768 10.1493 74 8.16667C74 3.6635 70.3365 0 65.8333 0C61.3302 0 57.6667 3.6635 57.6667 8.16667C57.8937 10.1932 56.8082 13.7803 59.856 17.0567C58.7935 17.1727 57.7693 17.4683 56.8003 17.9412C56.1385 18.2642 55.8638 19.0623 56.1868 19.7242C56.5098 20.3862 57.308 20.661 57.9698 20.3377C59.8022 19.4435 60.2162 19.6667 70.6667 19.6667C74.3427 19.6667 77.3333 22.6573 77.3333 26.3333V34.1667C77.3333 34.903 77.9303 35.5 78.6667 35.5C79.403 35.5 80 34.903 80 34.1667V26.3333C80 21.5697 76.412 17.631 71.797 17.0708ZM60.3333 8.16667C60.3333 5.134 62.8007 2.66667 65.8333 2.66667C68.866 2.66667 71.3333 5.134 71.3333 8.16667V11.5C71.3333 14.5327 68.866 17 65.8333 17C62.8007 17 60.3333 14.5327 60.3333 11.5V8.16667Z" fill="#F08E65"/>
    </symbol>
    <symbol id="assistance" xmlns="http://www.w3.org/2000/svg" viewBox="0 0 80 80" fill="none">
        <mask id="mask0_7_230" style="mask-type:luminance" maskUnits="userSpaceOnUse" x="0" y="0" width="80" height="80">
            <path d="M0 0H80V80H0V0Z" fill="white"/>
        </mask>
        <g mask="url(#mask0_7_230)">
            <path d="M68.2949 13.9448C74.608 20.7971 78.4638 29.9482 78.4638 39.9999C78.4638 61.2429 61.2429 78.4637 40 78.4637C18.7571 78.4637 1.53613 61.2429 1.53613 39.9999C1.53613 18.757 18.7571 1.53618 40 1.53618C41.5877 1.53618 43.153 1.63243 44.6904 1.8193" stroke="#F08E65" stroke-width="2" stroke-miterlimit="10" stroke-linecap="round" stroke-linejoin="round"/>
            <path d="M24.9381 16.0559C35.865 9.16857 50.4797 10.4839 59.9978 20.0022C71.0424 31.0467 71.0424 48.9533 59.9978 59.9978C48.9534 71.0423 31.0467 71.0423 20.0022 59.9978C10.4698 50.4656 9.16469 35.8217 16.0866 24.8897" stroke="#F08E65" stroke-width="2" stroke-miterlimit="10" stroke-linecap="round" stroke-linejoin="round"/>
            <path d="M68.021 19.6614V13.7239H73.9585" stroke="#F08E65" stroke-width="2" stroke-miterlimit="10" stroke-linecap="round" stroke-linejoin="round"/>
            <path d="M36.1797 39.9999C36.1797 42.1098 37.8902 43.8203 40 43.8203C42.1098 43.8203 43.8203 42.1098 43.8203 39.9999C43.8203 37.8901 42.1098 36.1796 40 36.1796C37.8902 36.1796 36.1797 37.8901 36.1797 39.9999Z" stroke="#F08E65" stroke-width="2" stroke-miterlimit="10" stroke-linecap="round" stroke-linejoin="round"/>
            <path d="M62.2395 40.0254H60.3125" stroke="#F08E65" stroke-width="2" stroke-miterlimit="10" stroke-linecap="round" stroke-linejoin="round"/>
            <path d="M17.7603 39.9745H19.6873" stroke="#F08E65" stroke-width="2" stroke-miterlimit="10" stroke-linecap="round" stroke-linejoin="round"/>
            <path d="M40.0254 17.7604V19.6874" stroke="#F08E65" stroke-width="2" stroke-miterlimit="10" stroke-linecap="round" stroke-linejoin="round"/>
            <path d="M39.9746 62.2396V60.3125" stroke="#F08E65" stroke-width="2" stroke-miterlimit="10" stroke-linecap="round" stroke-linejoin="round"/>
            <path d="M37.2985 37.2986L31.063 31.0631" stroke="#F08E65" stroke-width="2" stroke-miterlimit="10" stroke-linecap="round" stroke-linejoin="round"/>
            <path d="M42.7012 37.2986L54.3259 25.6739" stroke="#F08E65" stroke-width="2" stroke-miterlimit="10" stroke-linecap="round" stroke-linejoin="round"/>
        </g>
    </symbol>
</svg>
